<svg aria-hidden="true" style="position: absolute; width: 0; height: 0; overflow: hidden;" version="1.1" xmlns="http://www.w3.org/2000/svg" xmlns:xlink="http://www.w3.org/1999/xlink">
    <defs>
        <symbol id="icon-top" viewBox="0 0 56 32">
            <path d="M26.409 1.472c0.879-0.879 2.303-0.879 3.182 0l22.939 22.939c0.879 0.879 0.879 2.303 0 3.182l-1.061 1.061c-0.878 0.879-2.303 0.879-3.182 0l-20.287-20.288-20.288 20.288c-0.879 0.879-2.303 0.879-3.182 0l-1.061-1.061c-0.879-0.879-0.879-2.303 0-3.182l22.939-22.939z"></path>
        </symbol>
        <symbol id="icon-navbar" viewBox="0 0 43 32">
            <path d="M0 0h42.667v5.333h-42.667v-5.333zM10.667 13.333h32v5.333h-32v-5.333zM24 26.667h18.667v5.333h-18.667v-5.333z"></path>
        </symbol>
        <symbol id="icon-downCategoryFilters" viewBox="0 0 48 32">
            <path fill="#010101" style="fill: var(--color1, #010101)" d="M41.172 3.172l-17.172 17.172-17.172-17.172-5.656 5.656 22.828 22.828 22.828-22.828-5.656-5.656z"></path>
        </symbol>
        <symbol id="icon-Dot" viewBox="0 0 28 32">
            <path d="M28.444 14.976c0 7.855-6.367 14.222-14.222 14.222s-14.222-6.367-14.222-14.222c0-7.855 6.367-14.222 14.222-14.222s14.222 6.367 14.222 14.222z"></path>
        </symbol>
        <symbol id="icon-left" viewBox="0 0 32 32">
            <path d="M19.902 28.098l-9.813-9.813h21.911v-4.571h-21.911l9.813-9.813-3.232-3.232-15.33 15.33 15.33 15.33 3.232-3.232z"></path>
        </symbol>
        <symbol id="icon-right" viewBox="0 0 32 32">
            <path d="M12.098 28.098l3.232 3.232 15.33-15.33-15.33-15.33-3.232 3.232 9.813 9.813h-21.911v4.571h21.911l-9.813 9.813z"></path>
        </symbol>
        <symbol id="icon-right-arrow-alt" viewBox="0 0 31 32">
            <path  d="M14.455 22.406l1.81 1.81 8.585-8.585-8.585-8.585-1.81 1.81 5.495 5.495h-12.27v2.56h12.27l-5.495 5.495z"></path>
        </symbol>
        <symbol id="icon-left-arrow-alt" viewBox="0 0 31 32">
            <path  d="M16.265 23.306l-5.495-5.495h12.27v-2.56h-12.27l5.495-5.495-1.81-1.81-8.585 8.585 8.585 8.585 1.81-1.81z"></path>
        </symbol>
        <symbol id="icon-close" viewBox="0 0 32 32">
            <path d="M29.671 28.728l-0.943 0.943c-0.521 0.521-1.365 0.521-1.886 0l-10.842-10.842-10.842 10.842c-0.521 0.521-1.365 0.521-1.886 0l-0.943-0.943c-0.521-0.521-0.521-1.365 0-1.886l10.842-10.842-10.842-10.842c-0.521-0.521-0.521-1.365 0-1.886l0.943-0.943c0.521-0.521 1.365-0.521 1.886 0l10.842 10.842 10.842-10.842c0.521-0.521 1.365-0.521 1.886 0l0.943 0.943c0.521 0.521 0.521 1.365 0 1.886l-10.842 10.842 10.842 10.842c0.521 0.521 0.521 1.365 0 1.886z"></path>
        </symbol>
        <symbol id="icon-minus" viewBox="0 0 96 32">
            <path d="M7.552 29.952c-1.707 0-3.157-0.512-4.352-1.536-1.024-1.195-1.536-2.645-1.536-4.352v-9.728c0-1.707 0.512-3.072 1.536-4.096 1.195-1.195 2.645-1.792 4.352-1.792h76.8c1.707 0 3.072 0.597 4.096 1.792 1.195 1.024 1.792 2.389 1.792 4.096v9.728c0 1.707-0.597 3.157-1.792 4.352-1.024 1.024-2.389 1.536-4.096 1.536h-76.8z"></path>
        </symbol>
        <symbol id="icon-plus" viewBox="0 0 32 32">
            <path d="M15.002 30.31c-0.341 0-0.631-0.102-0.87-0.307-0.205-0.239-0.307-0.529-0.307-0.87v-10.65h-10.496c-0.341 0-0.631-0.102-0.87-0.307-0.205-0.239-0.307-0.529-0.307-0.87v-1.638c0-0.341 0.102-0.614 0.307-0.819 0.239-0.239 0.529-0.358 0.87-0.358h10.496v-10.342c0-0.341 0.102-0.614 0.307-0.819 0.239-0.239 0.529-0.358 0.87-0.358h1.792c0.341 0 0.614 0.119 0.819 0.358 0.239 0.205 0.358 0.478 0.358 0.819v10.342h10.547c0.341 0 0.614 0.119 0.819 0.358 0.239 0.205 0.358 0.478 0.358 0.819v1.638c0 0.341-0.119 0.631-0.358 0.87-0.205 0.205-0.478 0.307-0.819 0.307h-10.547v10.65c0 0.341-0.119 0.631-0.358 0.87-0.205 0.205-0.478 0.307-0.819 0.307h-1.792z"></path>
        </symbol>
        <symbol id="icon-location" viewBox="0 0 24 32">
            <path d="M12.191 19.68c3.362 0 6.095-2.734 6.095-6.095s-2.734-6.095-6.095-6.095c-3.362 0-6.095 2.734-6.095 6.095s2.734 6.095 6.095 6.095zM12.191 10.537c1.681 0 3.048 1.367 3.048 3.048s-1.367 3.048-3.048 3.048-3.048-1.367-3.048-3.048c0-1.681 1.367-3.048 3.048-3.048z"></path>
            <path d="M11.307 31.587c0.258 0.184 0.567 0.283 0.884 0.283s0.626-0.099 0.884-0.283c0.463-0.328 11.351-8.189 11.307-18.002 0-6.722-5.469-12.19-12.191-12.19s-12.19 5.469-12.19 12.183c-0.044 9.821 10.843 17.682 11.307 18.010zM12.191 4.442c5.042 0 9.143 4.101 9.143 9.15 0.032 6.763-6.686 12.835-9.143 14.827-2.455-1.993-9.175-8.067-9.143-14.834 0-5.042 4.101-9.143 9.143-9.143z"></path>
        </symbol>
        <symbol id="icon-phone" viewBox="0 0 30 32">
            <path d="M23.532 17.933c-0.148-0.149-0.325-0.267-0.519-0.347s-0.402-0.122-0.612-0.122c-0.21 0-0.418 0.041-0.612 0.122s-0.37 0.199-0.519 0.347l-2.55 2.55c-1.182-0.352-3.389-1.152-4.787-2.55s-2.198-3.605-2.55-4.787l2.55-2.55c0.149-0.148 0.267-0.325 0.347-0.519s0.122-0.402 0.122-0.612c0-0.21-0.041-0.418-0.122-0.612s-0.198-0.37-0.347-0.519l-6.4-6.4c-0.148-0.149-0.325-0.267-0.519-0.347s-0.402-0.122-0.612-0.122c-0.21 0-0.418 0.041-0.612 0.122s-0.37 0.198-0.519 0.347l-4.339 4.339c-0.608 0.608-0.95 1.443-0.938 2.296 0.037 2.278 0.64 10.192 6.877 16.429s14.15 6.838 16.43 6.877h0.045c0.845 0 1.643-0.333 2.248-0.938l4.339-4.339c0.149-0.148 0.267-0.325 0.347-0.519s0.122-0.402 0.122-0.612c0-0.21-0.041-0.418-0.122-0.612s-0.198-0.37-0.347-0.519l-6.4-6.402zM23.328 28.672c-1.997-0.034-8.829-0.57-14.197-5.939-5.386-5.386-5.907-12.242-5.939-14.198l3.208-3.208 4.138 4.138-2.069 2.069c-0.188 0.188-0.326 0.42-0.402 0.675s-0.087 0.524-0.033 0.785c0.038 0.184 0.978 4.547 3.634 7.203s7.019 3.595 7.203 3.634c0.26 0.056 0.53 0.046 0.785-0.030s0.487-0.214 0.674-0.403l2.070-2.069 4.138 4.138-3.21 3.208z"></path>
        </symbol>
        <symbol id="icon-email" viewBox="0 0 31 32">
            <path d="M25.6 6.291h-20.48c-1.412 0-2.56 1.148-2.56 2.56v15.36c0 1.412 1.148 2.56 2.56 2.56h20.48c1.412 0 2.56-1.148 2.56-2.56v-15.36c0-1.412-1.148-2.56-2.56-2.56zM25.6 8.851v0.654l-10.24 7.965-10.24-7.964v-0.655h20.48zM5.12 24.211v-11.464l9.454 7.354c0.224 0.176 0.501 0.272 0.786 0.272s0.562-0.096 0.786-0.272l9.454-7.354 0.003 11.464h-20.483z"></path>
        </symbol>
        <symbol id="icon-logo" viewBox="0 0 67 32">
            <path fill="#fefefd" style="fill: var(--color2, #fefefd)" d="M1.579 16.645c-0.001 0.051-0.001 0.103-0.002 0.154 0.001-0.050 0.001-0.101 0.002-0.151v-0.003z"></path>
            <path fill="#010101" style="fill: var(--color1, #010101)" d="M12.286 9.11c0.219-0.012 0.455-0.024 0.653 0.020 0.111 0.025 0.186 0.066 0.249 0.163 0.041 0.224 0.078 0.446 0.086 0.673 0.018 0.483 0.014 0.97 0.009 1.456-0.002 0.22-0.005 0.441-0.005 0.66v4.184c0 0.137 0.004 0.368 0.009 0.65 0.017 0.986 0.045 2.589-0.044 2.942-0.064 0.253-0.193 0.37-0.413 0.499-0.196 0.025-0.4 0.030-0.603 0.034-0.106 0.002-0.212 0.004-0.316 0.009-0.977 0.050-2.009 0.15-2.906 0.565-0.24 0.111-0.481 0.242-0.692 0.402-0.108 0.082-0.23 0.197-0.359 0.319-0.321 0.304-0.693 0.655-1.043 0.675-0.404 0.022-0.787-0.323-1.14-0.642-0.168-0.152-0.33-0.297-0.484-0.394-0.373-0.235-0.794-0.417-1.213-0.554-0.69-0.226-1.42-0.341-2.144-0.384-0.109-0.007-0.222-0.006-0.335-0.006-0.21 0.001-0.422 0.002-0.62-0.042-0.172-0.038-0.284-0.126-0.413-0.241-0.095-0.226-0.124-0.504-0.136-0.748-0.021-0.435-0.016-0.875-0.010-1.313 0.002-0.194 0.005-0.389 0.005-0.582l0.003-3.701-0.003-2.801c-0-0.122-0.006-0.255-0.011-0.392-0.015-0.372-0.030-0.777 0.051-1.095 0.045-0.174 0.145-0.251 0.291-0.344 1.605-0.104 3.359 0.229 4.77 1.014 0.469 0.261 0.891 0.58 1.317 0.902 0.24-0.179 0.482-0.358 0.729-0.527 1.328-0.907 2.909-1.355 4.511-1.395 0.065-0.002 0.135-0.006 0.205-0.009zM12.101 10.368c-0.194 0.002-0.4-0.011-0.593 0.015-1.318 0.119-3.008 0.601-3.903 1.651-0.038 0.045-0.074 0.091-0.109 0.138l-0.002 8.241c0.146-0.106 0.291-0.216 0.44-0.32 1.231-0.735 2.771-0.862 4.174-0.963 0-2.919 0.039-5.844-0.006-8.762zM1.601 10.369c-0.030 1.219-0.024 2.444-0.017 3.666 0.003 0.501 0.005 1.002 0.005 1.502 0 0.367-0.005 0.738-0.009 1.109v0.003c-0.010 0.821-0.021 1.646 0.020 2.458 1.621 0.14 3.249 0.3 4.599 1.291-0.008-2.735 0.007-5.47 0.045-8.204-1.062-1.121-2.723-1.783-4.255-1.826-0.13-0.003-0.26-0.002-0.389 0.002z"></path>
            <path fill="#010101" style="fill: var(--color1, #010101)" d="M12.286 9.11v0zM12.939 9.131v0zM13.188 9.294l0.192-0.035-0.007-0.039-0.022-0.033-0.164 0.107zM13.274 9.968v0zM13.284 11.423v0zM13.279 16.268h-0.195v0l0.195-0zM13.288 16.918v0zM13.244 19.86v0zM12.831 20.359l0.025 0.194 0.040-0.005 0.035-0.020-0.099-0.168zM12.228 20.393v0zM11.912 20.403l-0.010-0.195h-0l0.010 0.195zM9.006 20.968v0zM8.314 21.37v0zM7.955 21.689v0zM6.912 22.364l0.011 0.195h0l-0.011-0.195zM5.773 21.721v0zM5.289 21.328v0zM4.077 20.774l0.061-0.186h-0l-0.061 0.186zM1.933 20.389l-0.012 0.195h0l0.012-0.195zM1.598 20.384v0zM0.977 20.342l-0.042 0.191 0 0 0.042-0.191zM0.564 20.101l-0.18 0.076 0.017 0.041 0.033 0.029 0.13-0.146zM0.428 19.353v0zM0.418 18.040v0zM0.423 17.458v0zM0.426 13.757l0.196 0v-0l-0.196 0zM0.423 10.957v0zM0.412 10.564v0zM0.462 9.47v0zM0.754 9.125l-0.013-0.195-0.050 0.003-0.042 0.027 0.105 0.165zM5.523 10.139v0zM6.841 11.042l-0.118 0.156 0.117 0.088 0.118-0.088-0.117-0.157zM7.569 10.515v0zM12.080 9.12l0.005 0.195h0l-0.005-0.195zM12.101 10.368l0.195-0.003-0.003-0.194-0.194 0.002 0.002 0.195zM11.508 10.382l0.018 0.195 0.008-0.001-0.026-0.194zM7.605 12.033l-0.149-0.127-0.001 0.001 0.149 0.126zM7.495 12.171l-0.156-0.117-0.039 0.052-0 0.065 0.196 0zM7.493 20.412l-0.196-0-0 0.384 0.311-0.226-0.115-0.158zM7.933 20.093l-0.1-0.168-0.006 0.003-0.005 0.004 0.112 0.161zM12.107 19.13l0.014 0.195 0.181-0.013v-0.182h-0.195zM1.601 10.369l-0.006-0.195-0.184 0.006-0.005 0.184 0.195 0.005zM1.584 14.035v0zM1.589 15.536v0zM1.58 16.645l-0.195-0.002v0.002h0.195zM1.58 16.648l0.196 0.002v-0.002h-0.196zM1.6 19.106l-0.195 0.010 0.009 0.17 0.17 0.015 0.017-0.195zM6.199 20.396l-0.116 0.158 0.312 0.229-0.001-0.387-0.195 0.001zM6.245 12.193l0.195 0.003 0.001-0.079-0.055-0.058-0.142 0.134zM1.99 10.367l0.006-0.195-0.001-0-0.004 0.195zM12.286 9.11l0.010 0.195c0.226-0.012 0.433-0.021 0.6 0.016l0.085-0.382c-0.229-0.051-0.494-0.036-0.706-0.025l0.010 0.195zM12.939 9.131l-0.043 0.191c0.043 0.010 0.066 0.020 0.081 0.029 0.013 0.008 0.028 0.022 0.047 0.050l0.327-0.214c-0.045-0.069-0.098-0.125-0.166-0.167-0.066-0.042-0.136-0.065-0.204-0.080l-0.043 0.191zM13.188 9.294l-0.192 0.035c0.041 0.223 0.075 0.433 0.083 0.646l0.391-0.014c-0.009-0.243-0.048-0.476-0.089-0.701l-0.192 0.035zM13.274 9.968l-0.195 0.007c0.018 0.478 0.014 0.96 0.009 1.446l0.391 0.004c0.005-0.485 0.009-0.976-0.010-1.465l-0.195 0.007zM13.284 11.423l-0.196-0.002c-0.002 0.22-0.005 0.441-0.005 0.662h0.391c0-0.218 0.003-0.437 0.005-0.658l-0.195-0.002zM13.279 12.083h-0.195v4.184h0.391v-4.184h-0.196zM13.279 16.268l-0.195 0c0 0.139 0.004 0.372 0.009 0.653l0.391-0.007c-0.005-0.282-0.008-0.511-0.009-0.647l-0.196 0zM13.288 16.918l-0.196 0.003c0.009 0.493 0.020 1.138 0.018 1.704-0.001 0.283-0.005 0.544-0.015 0.756-0.010 0.218-0.024 0.365-0.041 0.431l0.379 0.095c0.028-0.11 0.043-0.296 0.052-0.509 0.010-0.219 0.014-0.487 0.015-0.772 0.002-0.571-0.009-1.22-0.018-1.712l-0.195 0.003zM13.244 19.86l-0.19-0.048c-0.025 0.101-0.061 0.164-0.105 0.215-0.047 0.054-0.113 0.103-0.217 0.164l0.198 0.337c0.116-0.068 0.224-0.142 0.312-0.242 0.091-0.104 0.152-0.225 0.191-0.378l-0.19-0.048zM12.831 20.359l-0.025-0.194c-0.184 0.023-0.379 0.028-0.583 0.033l0.009 0.391c0.201-0.004 0.416-0.009 0.623-0.036l-0.025-0.194zM12.228 20.393l-0.004-0.195c-0.104 0.002-0.214 0.004-0.321 0.010l0.010 0.195 0.010 0.195c0.1-0.005 0.202-0.007 0.31-0.009l-0.004-0.195zM11.912 20.403l-0.010-0.195c-0.978 0.050-2.044 0.151-2.978 0.583l0.164 0.355c0.86-0.398 1.859-0.497 2.834-0.547l-0.010-0.195zM9.006 20.968l-0.082-0.177c-0.247 0.114-0.502 0.252-0.729 0.424l0.237 0.311c0.196-0.149 0.423-0.273 0.656-0.38l-0.082-0.177zM8.314 21.37l-0.118-0.156c-0.118 0.090-0.248 0.212-0.375 0.332l0.269 0.284c0.131-0.124 0.244-0.23 0.343-0.305l-0.118-0.156zM7.955 21.689l-0.134-0.142c-0.163 0.154-0.326 0.309-0.491 0.428-0.168 0.122-0.31 0.187-0.428 0.194l0.011 0.195 0.011 0.195c0.232-0.013 0.45-0.133 0.636-0.268 0.189-0.137 0.372-0.31 0.53-0.461l-0.134-0.142zM6.912 22.364l-0.011-0.195c-0.142 0.008-0.297-0.048-0.472-0.162s-0.347-0.268-0.526-0.43l-0.262 0.29c0.174 0.157 0.37 0.334 0.576 0.468s0.444 0.239 0.706 0.224l-0.011-0.195zM5.773 21.721l0.131-0.145c-0.165-0.149-0.34-0.306-0.51-0.414l-0.209 0.331c0.137 0.086 0.286 0.219 0.457 0.374l0.131-0.145zM5.289 21.328l0.104-0.165c-0.39-0.246-0.827-0.434-1.256-0.574l-0.122 0.372c0.407 0.133 0.813 0.309 1.169 0.533l0.104-0.165zM4.077 20.774l0.061-0.186c-0.709-0.232-1.457-0.35-2.193-0.394l-0.012 0.195-0.012 0.195c0.711 0.042 1.425 0.156 2.095 0.375l0.061-0.186zM1.933 20.389l0.012-0.195c-0.117-0.007-0.236-0.006-0.348-0.006l0.001 0.195 0.001 0.196c0.115-0 0.221-0.001 0.323 0.005l0.012-0.195zM1.598 20.384l-0.001-0.195c-0.214 0.001-0.405 0.001-0.578-0.038l-0.084 0.382c0.223 0.049 0.458 0.047 0.663 0.047l-0.001-0.196zM0.977 20.342l0.042-0.191c-0.121-0.027-0.201-0.085-0.326-0.196l-0.259 0.293c0.134 0.119 0.277 0.235 0.5 0.285l0.042-0.191zM0.564 20.101l0.18-0.076c-0.081-0.192-0.109-0.441-0.121-0.681l-0.391 0.019c0.012 0.246 0.042 0.555 0.151 0.814l0.18-0.076zM0.428 19.353l0.195-0.009c-0.021-0.428-0.015-0.862-0.010-1.301l-0.391-0.005c-0.005 0.437-0.011 0.883 0.010 1.325l0.195-0.009zM0.418 18.040l0.195 0.002c0.002-0.195 0.005-0.39 0.005-0.584l-0.391-0c-0 0.192-0.002 0.385-0.005 0.58l0.195 0.002zM0.423 17.458l0.196 0 0.003-3.701-0.391-0-0.003 3.701 0.196 0zM0.426 13.757l0.196-0-0.003-2.801-0.391 0 0.003 2.801 0.196-0zM0.423 10.957l0.196-0c-0-0.127-0.006-0.264-0.011-0.4l-0.391 0.015c0.005 0.139 0.011 0.267 0.011 0.385l0.196-0zM0.412 10.564l0.195-0.008c-0.015-0.381-0.028-0.755 0.045-1.039l-0.379-0.097c-0.089 0.35-0.071 0.787-0.057 1.15l0.195-0.008zM0.462 9.47l0.189 0.048c0.025-0.098 0.070-0.14 0.207-0.228l-0.21-0.33c-0.154 0.098-0.312 0.21-0.376 0.461l0.189 0.048zM0.754 9.125l0.013 0.195c1.573-0.102 3.288 0.226 4.662 0.99l0.19-0.342c-1.448-0.805-3.239-1.144-4.877-1.038l0.013 0.195zM5.523 10.139l-0.095 0.171c0.455 0.253 0.866 0.564 1.294 0.887l0.236-0.312c-0.425-0.321-0.858-0.649-1.34-0.917l-0.095 0.171zM6.841 11.042l0.117 0.157c0.24-0.179 0.479-0.356 0.722-0.522l-0.221-0.323c-0.251 0.171-0.496 0.352-0.735 0.531l0.117 0.157zM7.569 10.515l0.11 0.161c1.293-0.883 2.836-1.322 4.405-1.361l-0.005-0.195-0.005-0.195c-1.634 0.041-3.253 0.498-4.616 1.429l0.11 0.161zM12.080 9.12l0.005 0.195c0.069-0.002 0.142-0.006 0.211-0.010l-0.021-0.39c-0.072 0.004-0.138 0.008-0.2 0.009l0.005 0.195zM12.101 10.368l-0.002-0.195c-0.176 0.001-0.409-0.011-0.617 0.016l0.026 0.194 0.026 0.194c0.177-0.023 0.356-0.011 0.569-0.013l-0.002-0.196zM11.508 10.382l-0.018-0.195c-0.673 0.061-1.444 0.214-2.162 0.488-0.717 0.273-1.396 0.672-1.872 1.23l0.298 0.254c0.419-0.491 1.033-0.859 1.714-1.118 0.68-0.259 1.414-0.406 2.058-0.464l-0.018-0.195zM7.605 12.033l-0.149-0.126c-0.041 0.049-0.080 0.098-0.116 0.147l0.313 0.235c0.034-0.045 0.068-0.089 0.102-0.13l-0.149-0.126zM7.495 12.171l-0.196-0-0.002 8.241 0.391 0 0.002-8.241-0.195-0zM7.493 20.412l0.115 0.158c0.151-0.11 0.29-0.215 0.436-0.317l-0.223-0.321c-0.151 0.105-0.302 0.219-0.443 0.322l0.115 0.158zM7.933 20.093l0.1 0.168c1.185-0.708 2.677-0.834 4.088-0.935l-0.014-0.195-0.014-0.195c-1.395 0.1-2.983 0.227-4.26 0.99l0.1 0.168zM12.107 19.13h0.195c0-2.915 0.039-5.845-0.006-8.766l-0.391 0.006c0.045 2.917 0.006 5.837 0.006 8.759h0.196zM1.601 10.369l-0.195-0.005c-0.030 1.223-0.024 2.45-0.017 3.672l0.391-0.002c-0.006-1.222-0.013-2.444 0.017-3.66l-0.195-0.005zM1.584 14.035l-0.196 0.001c0.003 0.501 0.005 1.001 0.005 1.501l0.391-0c-0-0.501-0.003-1.002-0.005-1.503l-0.195 0.001zM1.589 15.536h-0.195c0 0.366-0.005 0.735-0.009 1.106l0.391 0.005c0.005-0.371 0.009-0.742 0.009-1.111l-0.196 0zM1.58 16.645h-0.195v0.003h0.391v-0.003h-0.196zM1.58 16.648l-0.195-0.002c-0.010 0.82-0.021 1.652 0.021 2.47l0.39-0.020c-0.040-0.804-0.030-1.624-0.020-2.446l-0.195-0.002zM1.6 19.106l-0.017 0.195c1.629 0.14 3.201 0.3 4.5 1.254l0.231-0.315c-1.401-1.028-3.085-1.189-4.698-1.328l-0.017 0.195zM6.199 20.396l0.195-0.001c-0.008-2.734 0.007-5.467 0.045-8.201l-0.391-0.006c-0.038 2.736-0.053 5.471-0.045 8.207l0.196-0.001zM6.245 12.193l0.142-0.134c-1.101-1.163-2.814-1.842-4.391-1.887l-0.006 0.195-0.006 0.195c1.487 0.042 3.096 0.686 4.118 1.765l0.142-0.134zM1.99 10.367l0.004-0.195c-0.133-0.003-0.267-0.002-0.4 0.002l0.006 0.195 0.006 0.195c0.126-0.004 0.253-0.005 0.379-0.002l0.004-0.195z"></path>
            <path fill="#010101" style="fill: var(--color1, #010101)" d="M18.288 10.010c1.566-0.027 4.203-0.073 5.072 0.259 0.663 0.254 1.228 0.754 1.516 1.408 0.285 0.644 0.305 1.497 0.047 2.153-0.276 0.7-0.782 0.997-1.436 1.279 0.050 0.018 0.102 0.036 0.153 0.054 0.14 0.048 0.281 0.097 0.413 0.162 0.604 0.304 1.066 0.831 1.286 1.47 0.266 0.784 0.164 1.662-0.196 2.396-0.268 0.462-0.644 0.82-1.11 1.080-0.41 0.229-0.815 0.321-1.277 0.382-0.703 0.093-4.781 0.155-5.293-0.020-0.069-0.023-0.138-0.050-0.17-0.118-0.075-0.164-0.086-0.414-0.094-0.607l-0.002-0.053c-0.049-1.096-0.033-2.207-0.017-3.313 0.007-0.492 0.014-0.983 0.015-1.472 0.001-0.471-0.005-0.945-0.011-1.42-0.012-0.926-0.024-1.855 0.019-2.77 0.009-0.198 0.026-0.42 0.098-0.606 0.055-0.142 0.125-0.191 0.259-0.255 0.196-0.001 0.445-0.006 0.729-0.011zM22.203 15.96c-0.571-0.136-2.372-0.042-3.059-0.041l0.001 3.128c0.805 0.002 2.558 0.103 3.248-0.073 0.255-0.065 0.457-0.168 0.651-0.345 0.31-0.366 0.471-0.735 0.425-1.226-0.041-0.436-0.228-0.807-0.567-1.088-0.203-0.17-0.442-0.291-0.698-0.355zM19.713 11.597c-0.217 0.007-0.412 0.013-0.57 0.013l0.002 2.784c0.183 0 0.405 0.006 0.648 0.012 0.803 0.021 1.828 0.047 2.363-0.090 0.249-0.064 0.455-0.165 0.655-0.327 0.261-0.317 0.404-0.678 0.37-1.095-0.029-0.366-0.204-0.724-0.496-0.951-0.55-0.427-1.991-0.38-2.972-0.348z"></path>
            <path fill="#010101" style="fill: var(--color1, #010101)" d="M34.444 16.238c-0.301-2.26-2.378-3.848-4.638-3.546-2.258 0.302-3.844 2.377-3.544 4.635s2.374 3.846 4.633 3.546c2.26-0.3 3.849-2.376 3.548-4.635zM30.070 14.441c0.459-0.023 0.863-0.015 1.27 0.233 0.457 0.278 0.741 0.754 0.864 1.264 0.175 0.724 0.134 1.721-0.273 2.365-0.292 0.461-0.698 0.665-1.213 0.779-0.494 0.050-0.984 0.003-1.407-0.281-0.446-0.3-0.706-0.788-0.807-1.306-0.143-0.735-0.098-1.69 0.346-2.32 0.305-0.432 0.711-0.645 1.22-0.735z"></path>
            <path fill="#010101" style="fill: var(--color1, #010101)" d="M43.3 16.213c-0.312-2.26-2.4-3.836-4.658-3.517-2.25 0.317-3.818 2.395-3.507 4.645s2.384 3.825 4.635 3.52c2.26-0.306 3.842-2.389 3.53-4.648zM38.894 14.441c0.446-0.037 0.878-0.023 1.279 0.202 0.476 0.267 0.767 0.735 0.903 1.252 0.195 0.743 0.156 1.701-0.251 2.371-0.288 0.475-0.699 0.696-1.224 0.814-0.492 0.064-0.977 0.009-1.4-0.269-0.452-0.297-0.714-0.78-0.823-1.299-0.155-0.733-0.105-1.677 0.323-2.315 0.29-0.432 0.694-0.653 1.194-0.756z"></path>
            <path fill="#010101" style="fill: var(--color1, #010101)" d="M44.945 9.676c0.031-0.003 0.062-0.005 0.093-0.006 0.307-0.011 0.989-0.070 1.197 0.21 0.089 0.12 0.102 0.369 0.113 0.517 0.047 0.623 0.009 1.274 0.009 1.899l0.001 3.682c0.436-0.518 0.937-0.992 1.396-1.49 0.454-0.492 0.89-1.058 1.392-1.496 0.12-0.104 0.21-0.16 0.365-0.202 0.321-0.087 1.484-0.152 1.728 0.022 0.063 0.044 0.116 0.131 0.111 0.209-0.022 0.35-2.337 2.633-2.741 3.033 0.742 1.079 1.491 2.154 2.247 3.224 0.188 0.273 0.722 0.859 0.654 1.197-0.015 0.074-0.073 0.138-0.138 0.174-0.347 0.191-1.681 0.065-2.097-0.070-0.298-0.299-0.54-0.732-0.779-1.079l-1.449-2.112-0.692 0.602c-0.003 0.554 0.163 2.184-0.193 2.555-0.16 0.167-0.368 0.179-0.585 0.181-0.332 0.004-0.973 0.059-1.215-0.178-0.062-0.638-0.041-1.284-0.042-1.924l-0.001-2.735 0-3.747c0-0.666-0.024-1.342 0.007-2.007 0.004-0.090 0.007-0.167 0.060-0.243 0.127-0.184 0.358-0.188 0.56-0.215z"></path>
            <path fill="#010101" style="fill: var(--color1, #010101)" d="M59.031 12.72c0.437-0.010 1.307-0.106 1.701 0.057 0.147 0.061 0.214 0.212 0.28 0.349 0.28 0.584 0.463 1.256 0.689 1.865 0.392 1.060 0.814 2.109 1.212 3.167 0.231-0.597 1.827-5.046 2.089-5.268 0.128-0.109 0.371-0.132 0.531-0.137 0.337-0.010 0.965-0.084 1.22 0.151 0.064 0.152 0.056 0.234 0.019 0.397-0.131 0.567-0.409 1.157-0.612 1.704l-1.309 3.519-0.885 2.399c-0.178 0.484-0.335 1.002-0.565 1.463-0.129 0.256-0.285 0.497-0.481 0.707-0.47 0.504-1.086 0.721-1.763 0.744-0.29 0.010-0.789 0.064-1.013-0.144-0.143-0.289-0.155-0.964-0.063-1.276 0.090-0.304 0.755-0.246 1.023-0.397 0.432-0.243 0.549-0.721 0.661-1.166-0.347-1.048-2.957-7.458-2.931-7.82 0.011-0.157 0.085-0.225 0.199-0.316z"></path>
            <path fill="#010101" style="fill: var(--color1, #010101)" d="M54.743 12.689c0.219-0.033 0.459-0.024 0.682-0.022 0.885 0.009 1.875 0.195 2.512 0.861 0.293 0.306 0.506 0.768 0.474 1.199-0.005 0.074-0.026 0.179-0.088 0.223-0.318 0.225-1.185 0.181-1.563 0.13-0.335-0.045-0.309-0.269-0.516-0.514-0.228-0.27-0.56-0.402-0.907-0.428-0.385-0.028-0.873 0.097-1.16 0.368-0.127 0.12-0.26 0.427-0.24 0.6 0.089 0.752 2.207 0.848 2.816 1.002 0.517 0.13 1.049 0.324 1.462 0.672 0.392 0.33 0.569 0.78 0.609 1.282 0.049 0.62-0.132 1.213-0.543 1.682-0.715 0.815-1.756 1.055-2.792 1.131-0.796 0.027-1.653-0.082-2.37-0.45-0.52-0.267-0.989-0.684-1.162-1.26-0.071-0.235-0.118-0.51 0.007-0.733 0.362-0.284 1.351-0.173 1.791-0.157 0.148 0.226 0.239 0.49 0.441 0.677 0.341 0.315 0.845 0.41 1.296 0.387 0.369-0.018 0.761-0.123 1.008-0.416 0.136-0.161 0.215-0.369 0.195-0.582-0.082-0.852-2.181-0.849-2.831-0.999-0.469-0.108-0.948-0.298-1.328-0.599-0.4-0.318-0.656-0.745-0.705-1.258-0.054-0.625 0.139-1.247 0.537-1.731 0.602-0.729 1.467-0.977 2.374-1.065z"></path>
        </symbol>
    </defs>
</svg>